HIERARCHY
ROOT Hips
{
	OFFSET -0.001795 -0.223333 0.028219
	CHANNELS 6 Xposition Yposition Zposition Zrotation Yrotation Xrotation 
	JOINT LeftUpLeg
	{
		OFFSET 0.069520 -0.091406 -0.006815
		CHANNELS 3 Zrotation Yrotation Xrotation
		JOINT LeftLeg
		{
			OFFSET 0.034277 -0.375199 -0.004496
			CHANNELS 3 Zrotation Yrotation Xrotation
			JOINT LeftFoot
			{
				OFFSET -0.013596 -0.397961 -0.043693
				CHANNELS 3 Zrotation Yrotation Xrotation
				JOINT LeftToe
				{
					OFFSET 0.026358 -0.055791 0.119288
					CHANNELS 3 Zrotation Yrotation Xrotation
					End Site
					{
						OFFSET 0.000000 0.000000 0.000000
					}
				}
			}
		}
	}
	JOINT RightUpLeg
	{
		OFFSET -0.067670 -0.090522 -0.004320
		CHANNELS 3 Zrotation Yrotation Xrotation
		JOINT RightLeg
		{
			OFFSET -0.038290 -0.382569 -0.008850
			CHANNELS 3 Zrotation Yrotation Xrotation
			JOINT RightFoot
			{
				OFFSET 0.015774 -0.398415 -0.042312
				CHANNELS 3 Zrotation Yrotation Xrotation
				JOINT RightToe
				{
					OFFSET -0.025372 -0.048144 0.123348
					CHANNELS 3 Zrotation Yrotation Xrotation
					End Site
					{
						OFFSET 0.000000 0.000000 0.000000
					}
				}
			}
		}
	}
	JOINT Spine
	{
		OFFSET -0.002533 0.108963 -0.026696
		CHANNELS 3 Zrotation Yrotation Xrotation
		JOINT Spine1
		{
			OFFSET 0.005487 0.135180 0.001092
			CHANNELS 3 Zrotation Yrotation Xrotation
			JOINT Spine2
			{
				OFFSET 0.001457 0.052922 0.025425
				CHANNELS 3 Zrotation Yrotation Xrotation
				JOINT Neck
				{
					OFFSET -0.002778 0.213870 -0.042857
					CHANNELS 3 Zrotation Yrotation Xrotation
					JOINT Head
					{
						OFFSET 0.005152 0.064970 0.051349
						CHANNELS 3 Zrotation Yrotation Xrotation
						End Site
						{
							OFFSET 0.000000 0.000000 0.000000
						}
					}
				}
				JOINT LeftShoulder
				{
					OFFSET 0.078845 0.121749 -0.034090
					CHANNELS 3 Zrotation Yrotation Xrotation
					JOINT LeftArm
					{
						OFFSET 0.090977 0.030469 -0.008868
						CHANNELS 3 Zrotation Yrotation Xrotation
						JOINT LeftForeArm
						{
							OFFSET 0.259612 -0.012772 -0.027456
							CHANNELS 3 Zrotation Yrotation Xrotation
							JOINT LeftHand
							{
								OFFSET 0.249234 0.008986 -0.001171
								CHANNELS 3 Zrotation Yrotation Xrotation
								End Site
								{
									OFFSET 0.000000 0.000000 0.000000
								}
							}
						}
					}
				}
				JOINT RightShoulder
				{
					OFFSET -0.081759 0.118833 -0.038615
					CHANNELS 3 Zrotation Yrotation Xrotation
					JOINT RightArm
					{
						OFFSET -0.096012 0.032551 -0.009143
						CHANNELS 3 Zrotation Yrotation Xrotation
						JOINT RightForeArm
						{
							OFFSET -0.253742 -0.013329 -0.021401
							CHANNELS 3 Zrotation Yrotation Xrotation
							JOINT RightHand
							{
								OFFSET -0.255298 0.007772 -0.005559
								CHANNELS 3 Zrotation Yrotation Xrotation
								End Site
								{
									OFFSET 0.000000 0.000000 0.000000
								}
							}
						}
					}
				}
			}
		}
	}
}
MOTION
Frames: 16
Frame Time: 0.050000
0.000000 0.966819 0.000000 -1.168976 -3.622069 4.567172 3.923572 -0.272403 -3.619536 -0.844172 0.173240 -2.903384 1.757529 7.213830 12.653078 0.000000 0.000000 0.000000 -0.900661 0.606185 -6.210131 -0.981491 0.107239 0.234769 1.906629 -2.077841 12.542846 0.000000 0.000000 0.000000 5.144022 -0.104988 -0.127640 -3.107039 1.397828 -4.906607 -3.087207 4.554958 13.060148 8.263568 -3.049353 -20.656757 0.000000 0.000000 0.000000 -13.913544 -12.058553 4.189541 -58.654198 -5.201433 -5.284277 -5.992311 -24.197782 2.183140 0.000000 0.000000 0.000000 15.798050 3.100117 0.963060 62.600715 5.205195 -4.132732 6.717852 28.660954 2.923873 0.000000 0.000000 0.000000 
-0.000009 0.965107 -0.002333 -1.541480 -3.886451 4.839723 4.624848 -0.256085 -3.540355 -1.105428 0.206736 -3.285322 2.127731 7.551051 11.595698 0.000000 0.000000 0.000000 -0.537473 0.712711 -7.241545 -1.085814 0.197607 1.806853 1.719803 -2.137537 11.757913 0.000000 0.000000 0.000000 5.592763 -0.103987 -0.283125 -2.904855 1.311118 -4.597616 -3.611774 5.141245 12.655599 9.733598 -3.684716 -21.524696 0.000000 0.000000 0.000000 -12.955484 -12.081226 4.083271 -58.279198 -4.813424 -5.428819 -6.353191 -24.984552 2.306144 0.000000 0.000000 0.000000 15.439027 2.185241 0.594021 63.110943 4.288933 -4.571175 7.457404 29.877123 3.293651 0.000000 0.000000 0.000000 
0.000232 0.965205 -0.004282 -1.566646 -4.087378 4.840818 4.739630 -0.288983 -4.307643 -1.137345 0.176554 -1.918104 2.001245 7.378036 11.866358 0.000000 0.000000 0.000000 -0.349869 0.714714 -7.221798 -1.279207 0.222410 1.868730 1.839776 -2.025651 11.959800 0.000000 0.000000 0.000000 5.548346 -0.084341 -0.479198 -2.547919 1.151640 -5.141335 -3.651427 5.585221 13.709897 9.592608 -3.684418 -21.062915 0.000000 0.000000 0.000000 -12.773879 -11.886604 3.965151 -58.087379 -5.378845 -5.248800 -6.388716 -24.510341 2.267837 0.000000 0.000000 0.000000 15.028435 2.800840 1.005334 63.697471 4.276495 -4.698696 5.529471 28.861752 2.726417 0.000000 0.000000 0.000000 
0.000395 0.966295 -0.005700 -1.631963 -4.068995 5.293052 5.105030 -0.304294 -4.738689 -1.481753 0.221811 -2.448361 2.164976 7.862801 12.896544 0.000000 0.000000 0.000000 -0.367883 0.800510 -8.071977 -1.348135 0.238972 2.032044 1.888729 -2.174984 12.517574 0.000000 0.000000 0.000000 5.547638 0.008190 -1.566140 -2.737070 1.239869 -4.353626 -2.975676 4.988718 13.590824 9.643876 -3.729838 -21.392076 0.000000 0.000000 0.000000 -11.546179 -11.954808 4.118064 -59.118686 -4.848097 -5.592250 -5.762315 -25.892311 2.290816 0.000000 0.000000 0.000000 13.768268 3.458629 1.208065 64.363070 4.556187 -4.537167 4.095777 28.494787 2.300088 0.000000 0.000000 0.000000 
0.000716 0.967142 -0.006612 -1.741787 -4.182059 4.815731 5.077492 -0.288128 -4.532519 -1.294570 0.192191 -1.904836 2.362870 8.123418 12.657275 0.000000 0.000000 0.000000 -0.312409 0.776579 -7.821118 -1.507521 0.272018 2.292306 1.495293 -3.008106 12.666725 0.000000 0.000000 0.000000 5.580401 0.010117 -1.485364 -2.679785 1.220438 -3.935168 -2.785294 5.116131 13.822298 9.688525 -3.826827 -21.026636 0.000000 0.000000 0.000000 -10.888351 -11.841817 4.059449 -58.722259 -5.014703 -5.514484 -5.962643 -27.480614 2.486429 0.000000 0.000000 0.000000 13.164392 3.239239 1.115140 64.719782 4.237012 -4.737617 4.238110 28.417034 2.332816 0.000000 0.000000 0.000000 
0.001114 0.967736 -0.006944 -1.904876 -4.378414 4.725450 4.963833 -0.296277 -4.711404 -1.131764 0.175626 -1.879036 2.731164 8.727052 12.817707 0.000000 0.000000 0.000000 -0.229841 0.791616 -7.944807 -1.614011 0.296843 2.511516 1.545624 -2.913263 12.597479 0.000000 0.000000 0.000000 5.539965 0.011710 -1.476885 -2.687022 1.220067 -4.061199 -2.106524 5.324724 14.310530 9.586474 -3.729011 -21.328501 0.000000 0.000000 0.000000 -10.312308 -11.625310 3.971090 -58.557021 -4.658648 -5.731316 -5.973316 -29.418621 2.681855 0.000000 0.000000 0.000000 12.622048 3.098635 1.061304 64.582330 4.388632 -4.680916 3.894467 28.435792 2.262226 0.000000 0.000000 0.000000 
0.001677 0.967514 -0.007046 -1.990010 -4.233392 4.551667 4.975692 -0.291963 -4.644110 -1.167598 0.180714 -1.951055 2.737513 8.811285 13.109444 0.000000 0.000000 0.000000 -0.382714 0.799089 -8.058962 -1.578813 0.320382 2.986004 1.449731 -3.067666 12.585938 0.000000 0.000000 0.000000 5.836467 0.019371 -1.544725 -2.807159 1.272908 -4.157233 -1.966882 5.519338 14.296837 9.656437 -3.720965 -21.416935 0.000000 0.000000 0.000000 -9.429473 -10.649757 3.504262 -58.143396 -3.556687 -6.250983 -7.108388 -31.887612 3.220590 0.000000 0.000000 0.000000 11.871003 2.651980 0.896304 64.763910 4.138187 -4.785971 4.636707 29.447338 2.568036 0.000000 0.000000 0.000000 
0.002210 0.967343 -0.007197 -1.979498 -4.106415 4.408469 5.114689 -0.281323 -4.497857 -1.428426 0.205911 -1.921563 3.000476 9.152357 12.581464 0.000000 0.000000 0.000000 -0.533258 0.795451 -8.068229 -1.307512 0.292905 3.091439 1.466620 -2.784338 12.043539 0.000000 0.000000 0.000000 6.256911 0.037286 -1.728135 -2.924787 1.319719 -4.577902 -1.952995 5.423176 14.510167 10.021814 -3.963093 -21.355323 0.000000 0.000000 0.000000 -8.968732 -10.462823 3.437984 -57.062456 -2.426436 -6.686866 -5.902142 -36.198041 3.295619 0.000000 0.000000 0.000000 11.653678 2.498471 0.826146 64.902823 3.681670 -5.072769 5.515666 31.798023 3.077600 0.000000 0.000000 0.000000 
0.002565 0.967472 -0.007563 -2.188753 -3.533448 4.591482 5.057674 -0.295209 -4.590968 -1.143276 0.186392 -2.349009 2.476228 8.547509 13.451053 0.000000 0.000000 0.000000 -0.251458 0.790280 -7.934175 -1.488865 0.286393 2.562796 1.631734 -2.496065 12.313710 0.000000 0.000000 0.000000 6.837857 0.091661 -2.331105 -2.641688 1.201888 -4.868086 -2.109250 5.907965 14.723703 10.202433 -3.943301 -21.509701 0.000000 0.000000 0.000000 -7.637719 -8.595430 2.583966 -54.613220 -2.368044 -6.471976 -5.411301 -43.451697 3.687157 0.000000 0.000000 0.000000 11.332684 1.796787 0.630374 64.074146 3.077048 -5.314463 8.229477 35.063471 4.395124 0.000000 0.000000 0.000000 
0.002528 0.968431 -0.008271 -2.054914 -2.654567 4.183902 4.887912 -0.271921 -3.919383 -0.754472 0.176975 -3.365822 1.668871 7.454278 13.781437 0.000000 0.000000 0.000000 -0.096627 0.734085 -7.340899 -1.739016 0.297706 2.202578 1.820058 -1.959328 12.216038 0.000000 0.000000 0.000000 6.615443 0.147444 -2.835106 -2.129280 0.997621 -4.551616 -2.159017 7.339881 14.394430 11.245686 -4.635887 -19.887495 0.000000 0.000000 0.000000 -5.242491 -8.637490 2.509651 -47.827894 -5.599075 -4.389313 1.509964 -54.219653 0.568439 0.000000 0.000000 0.000000 10.776358 1.019362 0.543052 62.856437 1.755413 -5.753879 12.586514 39.086121 6.785418 0.000000 0.000000 0.000000 
0.002095 0.969494 -0.009124 -1.926130 -1.698724 4.051938 4.600002 -0.296827 -4.163132 -0.539931 0.145628 -2.941941 1.238128 6.884424 13.718414 0.000000 0.000000 0.000000 0.144848 0.674783 -6.696836 -1.827203 0.286488 1.783149 1.262144 -2.886737 12.211923 0.000000 0.000000 0.000000 6.224488 0.193349 -3.349528 -1.666371 0.812737 -4.788273 -1.964388 8.498649 14.184728 11.128837 -4.810333 -17.732810 0.000000 0.000000 0.000000 -3.939355 -8.853285 2.541856 -37.506337 -10.525519 -1.932158 36.049548 -63.732654 -22.180550 0.000000 0.000000 0.000000 11.399061 1.570906 1.073047 60.715219 1.987984 -5.467138 12.163115 42.374095 7.566546 0.000000 0.000000 0.000000 
0.001509 0.970241 -0.010039 -1.916820 -0.644474 3.883549 4.480486 -0.258952 -3.239837 -0.024239 0.133183 -3.867983 -0.101691 5.043062 14.187773 0.000000 0.000000 0.000000 1.085391 0.644224 -6.194430 -2.585882 0.312540 0.715092 1.388950 -2.495322 12.240509 0.000000 0.000000 0.000000 5.150797 0.268644 -4.351765 -0.326764 0.238244 -3.842308 -1.736974 8.765596 13.060367 10.677197 -4.804513 -15.831136 0.000000 0.000000 0.000000 0.600908 -9.192003 2.984702 -27.634085 -17.786808 -0.094279 78.907877 -49.506320 -42.233960 0.000000 0.000000 0.000000 11.261200 2.777049 1.764341 58.827691 3.507841 -4.518836 11.734081 46.551711 8.456634 0.000000 0.000000 0.000000 
0.001277 0.970269 -0.010735 -1.877360 -0.029556 3.673784 4.480886 -0.251137 -3.024185 0.204944 0.115541 -3.852807 0.264299 5.677269 14.092986 0.000000 0.000000 0.000000 1.271194 0.614052 -5.868508 -3.088981 0.345544 0.330825 1.379758 -2.777043 13.182976 0.000000 0.000000 0.000000 3.766482 0.274225 -4.755133 0.387460 -0.049590 -4.346365 -0.464196 8.444804 13.546331 9.077706 -3.978459 -14.821850 0.000000 0.000000 0.000000 7.552430 -10.100097 3.739770 -14.696535 -23.453998 -0.261746 90.656277 -17.504349 -20.607415 0.000000 0.000000 0.000000 10.218463 4.081957 2.290360 57.284023 4.555966 -3.961934 12.399570 52.264224 10.153252 0.000000 0.000000 0.000000 
0.002006 0.970825 -0.011541 -2.040745 0.191137 3.927213 4.851904 -0.272707 -3.409494 -0.204022 0.128304 -3.310001 0.567792 6.203179 14.173261 0.000000 0.000000 0.000000 0.960654 0.600556 -5.796309 -2.391249 0.246012 -0.080525 1.211043 -3.198243 13.570848 0.000000 0.000000 0.000000 2.610202 0.246611 -4.745687 1.400525 -0.449871 -5.115452 0.930938 7.928057 13.530148 7.106455 -2.773374 -14.497982 0.000000 0.000000 0.000000 15.264531 -9.243933 3.910945 -2.728323 -26.956003 -1.654702 90.186555 7.810609 3.069499 0.000000 0.000000 0.000000 8.691994 5.654159 2.822836 56.236259 5.966008 -3.241048 10.263759 61.904753 11.425515 0.000000 0.000000 0.000000 
0.003859 0.971685 -0.012681 -2.261611 0.125428 4.384343 4.685154 -0.291518 -3.670039 0.101797 0.128577 -4.008669 0.736902 6.615579 14.758742 0.000000 0.000000 0.000000 1.228056 0.662700 -6.323953 -2.814394 0.284330 -0.156045 1.424175 -3.113406 14.402039 0.000000 0.000000 0.000000 2.121739 0.263142 -5.232403 2.432925 -0.855775 -5.676474 1.357682 7.908849 13.295180 6.967420 -2.812767 -13.819057 0.000000 0.000000 0.000000 22.159002 -8.689523 4.105139 7.603064 -27.462938 -3.215236 87.544931 24.538827 17.586262 0.000000 0.000000 0.000000 7.529883 6.731831 3.172404 53.915855 7.910956 -2.246329 9.161942 73.607322 13.713583 0.000000 0.000000 0.000000 
0.006282 0.972156 -0.014124 -2.100281 0.355894 4.158003 4.203698 -0.289240 -3.555162 0.220336 0.108052 -3.673306 0.991436 7.096862 14.964183 0.000000 0.000000 0.000000 0.611109 0.633400 -6.167212 -2.597800 0.283757 0.172565 1.073892 -4.090809 15.512347 0.000000 0.000000 0.000000 1.786118 0.254024 -5.203747 2.824210 -0.934479 -7.140943 1.566842 7.550959 14.516600 6.712989 -2.729961 -13.575887 0.000000 0.000000 0.000000 26.516451 -9.001664 4.148663 14.073977 -27.160001 -4.169783 89.048861 32.361328 25.162629 0.000000 0.000000 0.000000 4.396689 7.550529 3.200170 53.905521 10.795641 -0.891070 -49.218581 84.866418 -36.156621 0.000000 0.000000 0.000000 
